<?xml version="1.0" encoding="utf-8"?>
<!-- Generator: Adobe Illustrator 25.3.1, SVG Export Plug-In . SVG Version: 6.00 Build 0)  -->
<svg version="1.1" id="Vrstva_1" xmlns="http://www.w3.org/2000/svg" xmlns:xlink="http://www.w3.org/1999/xlink" x="0px" y="0px"
	 viewBox="0 0 129.497 168.79" style="enable-background:new 0 0 129.497 168.79;" xml:space="preserve">
<style type="text/css">
	.st0{fill:#7AB7FF;}
	.st1{fill:#0099F5;}
</style>
<path class="st0" d="M0,168.79c26.656-4.086,49.145-26.403,49.145-58.974H0V168.79z"/>
<path class="st1" d="M118.745,81.378c-7.159-6.749-18.045-11.644-32.637-14.686l-26.74-5.559
	c-7.396-1.652-12.651-3.803-15.755-6.453c-3.102-2.642-4.648-5.986-4.648-10.021c0-4.83,2.376-8.749,7.129-11.757
	c4.754-3.01,10.631-4.519,17.63-4.519c5.216,0,9.661,0.862,13.321,2.578c3.667,1.724,6.621,3.973,8.866,6.749
	c2.245,2.778,3.764,5.828,4.556,9.132h35.988c-0.138-1.203-0.341-2.674-0.548-3.87c-2.257-13.056-8.532-23.473-18.944-31.163
	C96.295,3.936,81.685,0,63.129,0C50.52,0,39.474,1.919,29.994,5.756C20.523,9.592,13.157,15,7.911,21.984
	C2.659,28.962,0.066,37.248,0.13,46.842C0.066,58.088,3.602,67.371,10.731,74.675c7.132,7.315,18.055,12.459,32.788,15.437
	l26.147,5.359c6.801,1.457,11.819,3.509,15.054,6.149c3.238,2.65,4.887,6.023,4.954,10.127c-0.067,4.828-2.509,8.848-7.329,12.054
	c-4.82,3.213-11.226,4.816-19.215,4.816c-1.257,0-2.413-0.116-3.596-0.202c-2.536,10.342-7.176,19.697-13.506,27.614
	c5.359,0.812,10.965,1.368,17.101,1.368c12.943,0,24.404-2.084,34.373-6.25c9.969-4.171,17.79-9.96,23.48-17.368
	c5.677-7.413,8.515-16.012,8.515-25.806C129.497,96.992,125.914,88.129,118.745,81.378z"/>
</svg>
